<mxfile host="65bd71144e" pages="3">
    <diagram name="1" id="tRidxB5JEol-MvQMKE3D">
        <mxGraphModel dx="709" dy="983" grid="1" gridSize="10" guides="1" tooltips="1" connect="1" arrows="1" fold="1" page="1" pageScale="1" pageWidth="827" pageHeight="1169" math="0" shadow="0">
            <root>
                <mxCell id="Y9xtplmmN1m9p7DqJO31-0"/>
                <mxCell id="Y9xtplmmN1m9p7DqJO31-1" parent="Y9xtplmmN1m9p7DqJO31-0"/>
                <mxCell id="Y9xtplmmN1m9p7DqJO31-2" value="&lt;font style=&quot;font-size: 32px&quot;&gt;P1&lt;/font&gt;" style="ellipse;whiteSpace=wrap;html=1;aspect=fixed;" parent="Y9xtplmmN1m9p7DqJO31-1" vertex="1">
                    <mxGeometry x="120" y="40" width="80" height="80" as="geometry"/>
                </mxCell>
                <mxCell id="YlwRZLX8_3o3AYMhzQHX-1" style="edgeStyle=none;html=1;exitX=0.5;exitY=1;exitDx=0;exitDy=0;entryX=0.5;entryY=0;entryDx=0;entryDy=0;dashed=1;" edge="1" parent="Y9xtplmmN1m9p7DqJO31-1" source="Y9xtplmmN1m9p7DqJO31-3" target="Y9xtplmmN1m9p7DqJO31-6">
                    <mxGeometry relative="1" as="geometry"/>
                </mxCell>
                <mxCell id="Y9xtplmmN1m9p7DqJO31-3" value="&lt;font style=&quot;font-size: 32px&quot;&gt;P2&lt;/font&gt;" style="ellipse;whiteSpace=wrap;html=1;aspect=fixed;" parent="Y9xtplmmN1m9p7DqJO31-1" vertex="1">
                    <mxGeometry x="280" y="40" width="80" height="80" as="geometry"/>
                </mxCell>
                <mxCell id="Y9xtplmmN1m9p7DqJO31-4" value="&lt;font style=&quot;font-size: 32px&quot;&gt;P3&lt;/font&gt;" style="ellipse;whiteSpace=wrap;html=1;aspect=fixed;" parent="Y9xtplmmN1m9p7DqJO31-1" vertex="1">
                    <mxGeometry x="440" y="40" width="80" height="80" as="geometry"/>
                </mxCell>
                <mxCell id="YlwRZLX8_3o3AYMhzQHX-0" style="edgeStyle=none;html=1;exitX=0.75;exitY=0;exitDx=0;exitDy=0;entryX=0;entryY=1;entryDx=0;entryDy=0;" edge="1" parent="Y9xtplmmN1m9p7DqJO31-1" source="Y9xtplmmN1m9p7DqJO31-5" target="Y9xtplmmN1m9p7DqJO31-3">
                    <mxGeometry relative="1" as="geometry"/>
                </mxCell>
                <mxCell id="Y9xtplmmN1m9p7DqJO31-5" value="R1" style="whiteSpace=wrap;html=1;aspect=fixed;fontSize=32;" parent="Y9xtplmmN1m9p7DqJO31-1" vertex="1">
                    <mxGeometry x="130" y="330" width="60" height="60" as="geometry"/>
                </mxCell>
                <mxCell id="Y9xtplmmN1m9p7DqJO31-6" value="R2" style="whiteSpace=wrap;html=1;aspect=fixed;fontSize=32;" parent="Y9xtplmmN1m9p7DqJO31-1" vertex="1">
                    <mxGeometry x="290" y="330" width="60" height="60" as="geometry"/>
                </mxCell>
                <mxCell id="YlwRZLX8_3o3AYMhzQHX-2" style="edgeStyle=none;html=1;exitX=0.5;exitY=0;exitDx=0;exitDy=0;entryX=0.5;entryY=1;entryDx=0;entryDy=0;" edge="1" parent="Y9xtplmmN1m9p7DqJO31-1" source="Y9xtplmmN1m9p7DqJO31-7" target="Y9xtplmmN1m9p7DqJO31-4">
                    <mxGeometry relative="1" as="geometry"/>
                </mxCell>
                <mxCell id="Y9xtplmmN1m9p7DqJO31-7" value="R3" style="whiteSpace=wrap;html=1;aspect=fixed;fontSize=32;" parent="Y9xtplmmN1m9p7DqJO31-1" vertex="1">
                    <mxGeometry x="450" y="330" width="60" height="60" as="geometry"/>
                </mxCell>
                <mxCell id="Y9xtplmmN1m9p7DqJO31-8" value="" style="endArrow=classic;html=1;rounded=0;fontSize=32;exitX=0.5;exitY=1;exitDx=0;exitDy=0;entryX=0.5;entryY=0;entryDx=0;entryDy=0;dashed=1;" parent="Y9xtplmmN1m9p7DqJO31-1" source="Y9xtplmmN1m9p7DqJO31-2" target="Y9xtplmmN1m9p7DqJO31-5" edge="1">
                    <mxGeometry width="50" height="50" relative="1" as="geometry">
                        <mxPoint x="230" y="250" as="sourcePoint"/>
                        <mxPoint x="280" y="200" as="targetPoint"/>
                    </mxGeometry>
                </mxCell>
                <mxCell id="Y9xtplmmN1m9p7DqJO31-10" value="" style="endArrow=classic;html=1;rounded=0;fontSize=32;exitX=1;exitY=1;exitDx=0;exitDy=0;entryX=0.25;entryY=0;entryDx=0;entryDy=0;" parent="Y9xtplmmN1m9p7DqJO31-1" source="Y9xtplmmN1m9p7DqJO31-2" target="Y9xtplmmN1m9p7DqJO31-6" edge="1">
                    <mxGeometry width="50" height="50" relative="1" as="geometry">
                        <mxPoint x="360" y="260" as="sourcePoint"/>
                        <mxPoint x="410" y="210" as="targetPoint"/>
                    </mxGeometry>
                </mxCell>
                <mxCell id="Y9xtplmmN1m9p7DqJO31-12" value="" style="endArrow=classic;html=1;rounded=0;fontSize=32;exitX=0;exitY=1;exitDx=0;exitDy=0;entryX=0.75;entryY=0;entryDx=0;entryDy=0;dashed=1;" parent="Y9xtplmmN1m9p7DqJO31-1" source="Y9xtplmmN1m9p7DqJO31-4" target="Y9xtplmmN1m9p7DqJO31-6" edge="1">
                    <mxGeometry width="50" height="50" relative="1" as="geometry">
                        <mxPoint x="370" y="250" as="sourcePoint"/>
                        <mxPoint x="420" y="200" as="targetPoint"/>
                    </mxGeometry>
                </mxCell>
                <mxCell id="Y9xtplmmN1m9p7DqJO31-13" value="" style="endArrow=classic;html=1;rounded=0;fontSize=32;exitX=1;exitY=1;exitDx=0;exitDy=0;entryX=0.25;entryY=0;entryDx=0;entryDy=0;" parent="Y9xtplmmN1m9p7DqJO31-1" source="Y9xtplmmN1m9p7DqJO31-3" target="Y9xtplmmN1m9p7DqJO31-7" edge="1">
                    <mxGeometry width="50" height="50" relative="1" as="geometry">
                        <mxPoint x="460" y="250" as="sourcePoint"/>
                        <mxPoint x="510" y="200" as="targetPoint"/>
                    </mxGeometry>
                </mxCell>
            </root>
        </mxGraphModel>
    </diagram>
    <diagram name="2" id="TiRNxEcL6ZoytFGmCB--">
        <mxGraphModel dx="709" dy="983" grid="1" gridSize="10" guides="1" tooltips="1" connect="1" arrows="1" fold="1" page="1" pageScale="1" pageWidth="827" pageHeight="1169" math="0" shadow="0">
            <root>
                <mxCell id="nq5SwlWvHC95nCjrB5uy-0"/>
                <mxCell id="nq5SwlWvHC95nCjrB5uy-1" parent="nq5SwlWvHC95nCjrB5uy-0"/>
                <mxCell id="iGltLqUm2oNWnQmC0E8K-0" value="&lt;font style=&quot;font-size: 32px&quot;&gt;P1&lt;/font&gt;" style="ellipse;whiteSpace=wrap;html=1;aspect=fixed;" vertex="1" parent="nq5SwlWvHC95nCjrB5uy-1">
                    <mxGeometry x="120" y="40" width="80" height="80" as="geometry"/>
                </mxCell>
                <mxCell id="iGltLqUm2oNWnQmC0E8K-1" style="edgeStyle=none;html=1;exitX=0.5;exitY=1;exitDx=0;exitDy=0;entryX=0.5;entryY=0;entryDx=0;entryDy=0;dashed=1;" edge="1" parent="nq5SwlWvHC95nCjrB5uy-1" source="iGltLqUm2oNWnQmC0E8K-2" target="iGltLqUm2oNWnQmC0E8K-6">
                    <mxGeometry relative="1" as="geometry"/>
                </mxCell>
                <mxCell id="iGltLqUm2oNWnQmC0E8K-2" value="&lt;font style=&quot;font-size: 32px&quot;&gt;P2&lt;/font&gt;" style="ellipse;whiteSpace=wrap;html=1;aspect=fixed;" vertex="1" parent="nq5SwlWvHC95nCjrB5uy-1">
                    <mxGeometry x="280" y="40" width="80" height="80" as="geometry"/>
                </mxCell>
                <mxCell id="iGltLqUm2oNWnQmC0E8K-14" style="edgeStyle=none;html=1;exitX=0.5;exitY=1;exitDx=0;exitDy=0;entryX=0.5;entryY=0;entryDx=0;entryDy=0;dashed=1;" edge="1" parent="nq5SwlWvHC95nCjrB5uy-1" source="iGltLqUm2oNWnQmC0E8K-3" target="iGltLqUm2oNWnQmC0E8K-8">
                    <mxGeometry relative="1" as="geometry"/>
                </mxCell>
                <mxCell id="iGltLqUm2oNWnQmC0E8K-3" value="&lt;font style=&quot;font-size: 32px&quot;&gt;P3&lt;/font&gt;" style="ellipse;whiteSpace=wrap;html=1;aspect=fixed;" vertex="1" parent="nq5SwlWvHC95nCjrB5uy-1">
                    <mxGeometry x="440" y="40" width="80" height="80" as="geometry"/>
                </mxCell>
                <mxCell id="iGltLqUm2oNWnQmC0E8K-4" style="edgeStyle=none;html=1;exitX=0.75;exitY=0;exitDx=0;exitDy=0;entryX=0;entryY=1;entryDx=0;entryDy=0;" edge="1" parent="nq5SwlWvHC95nCjrB5uy-1" source="iGltLqUm2oNWnQmC0E8K-5" target="iGltLqUm2oNWnQmC0E8K-2">
                    <mxGeometry relative="1" as="geometry"/>
                </mxCell>
                <mxCell id="iGltLqUm2oNWnQmC0E8K-5" value="R1" style="whiteSpace=wrap;html=1;aspect=fixed;fontSize=32;" vertex="1" parent="nq5SwlWvHC95nCjrB5uy-1">
                    <mxGeometry x="130" y="330" width="60" height="60" as="geometry"/>
                </mxCell>
                <mxCell id="iGltLqUm2oNWnQmC0E8K-6" value="R2" style="whiteSpace=wrap;html=1;aspect=fixed;fontSize=32;" vertex="1" parent="nq5SwlWvHC95nCjrB5uy-1">
                    <mxGeometry x="290" y="330" width="60" height="60" as="geometry"/>
                </mxCell>
                <mxCell id="iGltLqUm2oNWnQmC0E8K-13" style="edgeStyle=none;html=1;exitX=0.25;exitY=0;exitDx=0;exitDy=0;entryX=1;entryY=1;entryDx=0;entryDy=0;" edge="1" parent="nq5SwlWvHC95nCjrB5uy-1" source="iGltLqUm2oNWnQmC0E8K-8" target="iGltLqUm2oNWnQmC0E8K-2">
                    <mxGeometry relative="1" as="geometry"/>
                </mxCell>
                <mxCell id="iGltLqUm2oNWnQmC0E8K-8" value="R3" style="whiteSpace=wrap;html=1;aspect=fixed;fontSize=32;" vertex="1" parent="nq5SwlWvHC95nCjrB5uy-1">
                    <mxGeometry x="450" y="330" width="60" height="60" as="geometry"/>
                </mxCell>
                <mxCell id="iGltLqUm2oNWnQmC0E8K-9" value="" style="endArrow=classic;html=1;rounded=0;fontSize=32;exitX=0.5;exitY=1;exitDx=0;exitDy=0;entryX=0.5;entryY=0;entryDx=0;entryDy=0;dashed=1;" edge="1" parent="nq5SwlWvHC95nCjrB5uy-1" source="iGltLqUm2oNWnQmC0E8K-0" target="iGltLqUm2oNWnQmC0E8K-5">
                    <mxGeometry width="50" height="50" relative="1" as="geometry">
                        <mxPoint x="230" y="250" as="sourcePoint"/>
                        <mxPoint x="280" y="200" as="targetPoint"/>
                    </mxGeometry>
                </mxCell>
                <mxCell id="iGltLqUm2oNWnQmC0E8K-10" value="" style="endArrow=classic;html=1;rounded=0;fontSize=32;exitX=1;exitY=1;exitDx=0;exitDy=0;entryX=0.25;entryY=0;entryDx=0;entryDy=0;" edge="1" parent="nq5SwlWvHC95nCjrB5uy-1" source="iGltLqUm2oNWnQmC0E8K-0" target="iGltLqUm2oNWnQmC0E8K-6">
                    <mxGeometry width="50" height="50" relative="1" as="geometry">
                        <mxPoint x="360" y="260" as="sourcePoint"/>
                        <mxPoint x="410" y="210" as="targetPoint"/>
                    </mxGeometry>
                </mxCell>
                <mxCell id="iGltLqUm2oNWnQmC0E8K-11" value="" style="endArrow=classic;html=1;rounded=0;fontSize=32;exitX=0;exitY=1;exitDx=0;exitDy=0;entryX=0.75;entryY=0;entryDx=0;entryDy=0;dashed=1;" edge="1" parent="nq5SwlWvHC95nCjrB5uy-1" source="iGltLqUm2oNWnQmC0E8K-3" target="iGltLqUm2oNWnQmC0E8K-6">
                    <mxGeometry width="50" height="50" relative="1" as="geometry">
                        <mxPoint x="370" y="250" as="sourcePoint"/>
                        <mxPoint x="420" y="200" as="targetPoint"/>
                    </mxGeometry>
                </mxCell>
            </root>
        </mxGraphModel>
    </diagram>
    <diagram name="3" id="bhR25khRzm2KKj1hfewu">
        <mxGraphModel dx="709" dy="983" grid="1" gridSize="10" guides="1" tooltips="1" connect="1" arrows="1" fold="1" page="1" pageScale="1" pageWidth="827" pageHeight="1169" math="0" shadow="0">
            <root>
                <mxCell id="GUa26JJbTIs51674DWRH-0"/>
                <mxCell id="GUa26JJbTIs51674DWRH-1" parent="GUa26JJbTIs51674DWRH-0"/>
                <mxCell id="GUa26JJbTIs51674DWRH-2" value="&lt;font style=&quot;font-size: 32px&quot;&gt;P1&lt;/font&gt;" style="ellipse;whiteSpace=wrap;html=1;aspect=fixed;" vertex="1" parent="GUa26JJbTIs51674DWRH-1">
                    <mxGeometry x="120" y="40" width="80" height="80" as="geometry"/>
                </mxCell>
                <mxCell id="GUa26JJbTIs51674DWRH-3" style="edgeStyle=none;html=1;exitX=0.5;exitY=1;exitDx=0;exitDy=0;entryX=0.5;entryY=0;entryDx=0;entryDy=0;dashed=1;" edge="1" parent="GUa26JJbTIs51674DWRH-1" source="GUa26JJbTIs51674DWRH-4" target="GUa26JJbTIs51674DWRH-9">
                    <mxGeometry relative="1" as="geometry"/>
                </mxCell>
                <mxCell id="_tK6Nv8QVvGbOYdjzPG4-0" style="edgeStyle=none;html=1;exitX=0;exitY=1;exitDx=0;exitDy=0;entryX=0.75;entryY=0;entryDx=0;entryDy=0;dashed=1;" edge="1" parent="GUa26JJbTIs51674DWRH-1" source="GUa26JJbTIs51674DWRH-4" target="GUa26JJbTIs51674DWRH-8">
                    <mxGeometry relative="1" as="geometry"/>
                </mxCell>
                <mxCell id="GUa26JJbTIs51674DWRH-4" value="&lt;font style=&quot;font-size: 32px&quot;&gt;P2&lt;/font&gt;" style="ellipse;whiteSpace=wrap;html=1;aspect=fixed;" vertex="1" parent="GUa26JJbTIs51674DWRH-1">
                    <mxGeometry x="280" y="40" width="80" height="80" as="geometry"/>
                </mxCell>
                <mxCell id="GUa26JJbTIs51674DWRH-5" style="edgeStyle=none;html=1;exitX=0.5;exitY=1;exitDx=0;exitDy=0;entryX=0.5;entryY=0;entryDx=0;entryDy=0;dashed=1;" edge="1" parent="GUa26JJbTIs51674DWRH-1" source="GUa26JJbTIs51674DWRH-6" target="GUa26JJbTIs51674DWRH-11">
                    <mxGeometry relative="1" as="geometry"/>
                </mxCell>
                <mxCell id="GUa26JJbTIs51674DWRH-6" value="&lt;font style=&quot;font-size: 32px&quot;&gt;P3&lt;/font&gt;" style="ellipse;whiteSpace=wrap;html=1;aspect=fixed;" vertex="1" parent="GUa26JJbTIs51674DWRH-1">
                    <mxGeometry x="440" y="40" width="80" height="80" as="geometry"/>
                </mxCell>
                <mxCell id="GUa26JJbTIs51674DWRH-8" value="R1" style="whiteSpace=wrap;html=1;aspect=fixed;fontSize=32;" vertex="1" parent="GUa26JJbTIs51674DWRH-1">
                    <mxGeometry x="130" y="330" width="60" height="60" as="geometry"/>
                </mxCell>
                <mxCell id="_tK6Nv8QVvGbOYdjzPG4-1" style="edgeStyle=none;html=1;exitX=0.25;exitY=0;exitDx=0;exitDy=0;entryX=1;entryY=1;entryDx=0;entryDy=0;" edge="1" parent="GUa26JJbTIs51674DWRH-1" source="GUa26JJbTIs51674DWRH-9" target="GUa26JJbTIs51674DWRH-2">
                    <mxGeometry relative="1" as="geometry"/>
                </mxCell>
                <mxCell id="GUa26JJbTIs51674DWRH-9" value="R2" style="whiteSpace=wrap;html=1;aspect=fixed;fontSize=32;" vertex="1" parent="GUa26JJbTIs51674DWRH-1">
                    <mxGeometry x="290" y="330" width="60" height="60" as="geometry"/>
                </mxCell>
                <mxCell id="GUa26JJbTIs51674DWRH-10" style="edgeStyle=none;html=1;exitX=0.25;exitY=0;exitDx=0;exitDy=0;entryX=1;entryY=1;entryDx=0;entryDy=0;" edge="1" parent="GUa26JJbTIs51674DWRH-1" source="GUa26JJbTIs51674DWRH-11" target="GUa26JJbTIs51674DWRH-4">
                    <mxGeometry relative="1" as="geometry"/>
                </mxCell>
                <mxCell id="GUa26JJbTIs51674DWRH-11" value="R3" style="whiteSpace=wrap;html=1;aspect=fixed;fontSize=32;" vertex="1" parent="GUa26JJbTIs51674DWRH-1">
                    <mxGeometry x="450" y="330" width="60" height="60" as="geometry"/>
                </mxCell>
                <mxCell id="GUa26JJbTIs51674DWRH-12" value="" style="endArrow=classic;html=1;rounded=0;fontSize=32;exitX=0.5;exitY=1;exitDx=0;exitDy=0;entryX=0.5;entryY=0;entryDx=0;entryDy=0;dashed=1;" edge="1" parent="GUa26JJbTIs51674DWRH-1" source="GUa26JJbTIs51674DWRH-2" target="GUa26JJbTIs51674DWRH-8">
                    <mxGeometry width="50" height="50" relative="1" as="geometry">
                        <mxPoint x="230" y="250" as="sourcePoint"/>
                        <mxPoint x="280" y="200" as="targetPoint"/>
                    </mxGeometry>
                </mxCell>
                <mxCell id="GUa26JJbTIs51674DWRH-14" value="" style="endArrow=classic;html=1;rounded=0;fontSize=32;exitX=0;exitY=1;exitDx=0;exitDy=0;entryX=0.75;entryY=0;entryDx=0;entryDy=0;dashed=1;" edge="1" parent="GUa26JJbTIs51674DWRH-1" source="GUa26JJbTIs51674DWRH-6" target="GUa26JJbTIs51674DWRH-9">
                    <mxGeometry width="50" height="50" relative="1" as="geometry">
                        <mxPoint x="370" y="250" as="sourcePoint"/>
                        <mxPoint x="420" y="200" as="targetPoint"/>
                    </mxGeometry>
                </mxCell>
            </root>
        </mxGraphModel>
    </diagram>
</mxfile>
